#!OML:ASF \\Waltz\H\Terrain\Patient Classification 1\Animal2\Wednesday\Animal2.ASF
:FULLY-SPECIFIED
:DEGREES
4847
root 14.9989 17.9322 -9.38407 907.415 -94.5121 -908.12
lowerback 3.74856 0.15273 5.10289
upperback 0.900678 0.388159 1.29244
thorax -1.14945 0.170297 -1.54933
lowerneck 20.4364 21.1599 20.3046
upperneck -2.55286 32.1094 -28.0489
head 4.116 17.3065 -10.4936
rclavicle 1.34428e-014 3.97569e-015
rhumerus -38.457 0.561359 -77.74
rradius 22.0888
rwrist 28.3354
rhand -8.02263 22.1598
rfingers 7.12502
rthumb 17.8871 -7.03758
lclavicle 1.34428e-014 3.97569e-015
lhumerus -47.2218 -0.204746 78.3411
lradius 20.1855
lwrist -6.71667
lhand -14.8961 12.4161
lfingers 7.12502
lthumb 11.265 42.0936
rfemur -5.69821 -11.3022 23.8862
rtibia 21.961
rfoot -25.559 -14.4041
rtoes 40.1685
lfemur -10.7481 6.06572 -20.8688
ltibia 27.1372
lfoot -19.8972 19.4333
ltoes 0.0255971
4848
root 15.0038 17.9282 -9.3802 906.631 -94.6159 -907.436
lowerback 3.82065 0.183169 5.01767
upperback 0.912627 0.429653 1.32158
thorax -1.17577 0.190639 -1.47405
lowerneck 20.2017 21.1515 20.1209
upperneck -2.23824 32.0587 -27.6998
head 4.13376 17.2418 -10.3466
rclavicle 1.3418e-015 1.43125e-014
rhumerus -37.9591 1.23596 -77.9391
rradius 22.6273
rwrist 26.5621
rhand -8.4549 21.6394
rfingers 7.12502
rthumb 17.4711 -7.59552
lclavicle 1.3418e-015 1.43125e-014
lhumerus -47.0038 -0.988123 78.9659
lradius 20.9902
lwrist -5.33393
lhand -14.6269 12.4287
lfingers 7.12502
lthumb 11.5246 42.0919
rfemur -5.60241 -11.281 23.8141
rtibia 21.9699
rfoot -25.4129 -14.5216
rtoes 40.0203
lfemur -10.6832 6.34741 -20.9006
ltibia 27.1492
lfoot -19.8544 18.9528
ltoes 1.35246
4849
root 15.007 17.9211 -9.37554 907.308 -94.6876 -908.237
lowerback 3.87299 0.221186 5.12241
upperback 0.978863 0.483936 1.31221
thorax -1.13234 0.219016 -1.5448
lowerneck 19.9138 21.1265 20.1764
upperneck -1.95044 32.0489 -27.5558
head 4.24097 17.2025 -10.2599
rclavicle -3.2551e-015 -4.77083e-015
rhumerus -37.322 1.15781 -77.8572
rradius 23.068
rwrist 25.6229
rhand -8.65108 21.3447
rfingers 7.12502
rthumb 17.2823 -7.90686
lclavicle -3.2551e-015 -4.77083e-015
lhumerus -46.6291 -1.28203 79.0595
lradius 21.7756
lwrist -4.38607
lhand -14.7064 12.5062
lfingers 7.12502
lthumb 11.4479 42.1736
rfemur -5.52812 -11.2791 23.8745
rtibia 22.0558
rfoot -25.3456 -14.7466
rtoes 39.8335
lfemur -10.5426 6.42599 -20.8272
ltibia 27.1039
lfoot -19.7364 18.8213
ltoes 1.3562
4850
root 15.0071 17.916 -9.36818 906.154 -94.7257 -907.148
lowerback 3.869 0.254344 5.07368
upperback 0.986934 0.525797 1.26462
thorax -1.11915 0.240789 -1.56842
lowerneck 19.8939 21.0986 20.3531
upperneck -1.81391 32.0772 -27.5359
head 4.31688 17.2103 -10.2533
rclavicle -2.02263e-014 7.15625e-015
rhumerus -36.7479 0.74619 -77.4618
rradius 23.4659
rwrist 25.4508
rhand -8.50921 21.8434
rfingers 7.12502
rthumb 17.4188 -7.39609
lclavicle -2.02263e-014 7.15625e-015
lhumerus -46.2488 -1.83883 79.3286
lradius 22.5405
lwrist -3.16076
lhand -15.0501 12.4486
lfingers 7.12502
lthumb 11.1165 42.1342
rfemur -5.4973 -11.2595 23.7439
rtibia 22.1752
rfoot -25.4164 -14.9707
rtoes 39.6641
lfemur -10.4082 6.39157 -20.9477
ltibia 27.0141
lfoot -19.7013 18.8397
ltoes 2.19143
4851
root 15.0071 17.9147 -9.35946 904.381 -94.8068 -905.425
lowerback 3.85345 0.260066 4.94361
upperback 0.967349 0.52886 1.2572
thorax -1.13171 0.242368 -1.50351
lowerneck 19.8896 21.0799 20.4459
upperneck -1.62014 32.1057 -27.4986
head 4.39088 17.2168 -10.236
rclavicle 7.8023e-015 -1.59028e-015
rhumerus -36.257 0.745247 -77.1485
rradius 23.9794
rwrist 24.8847
rhand -8.70003 21.7491
rfingers 7.12502
rthumb 17.2352 -7.50663
lclavicle 7.8023e-015 -1.59028e-015
lhumerus -45.9385 -2.80916 80.0068
lradius 23.3683
lwrist -1.34859
lhand -15.3502 12.5194
lfingers 7.12502
lthumb 10.827 42.2203
rfemur -5.48075 -11.461 23.5326
rtibia 22.2948
rfoot -25.0529 -15.2028
rtoes 39.2789
lfemur -10.2777 6.14276 -21.1247
ltibia 26.8952
lfoot -19.8216 18.8225
ltoes 2.82607
4852
root 15.0074 17.9168 -9.35634 902.687 -94.9033 -903.77
lowerback 3.85541 0.2556 4.73193
upperback 0.945626 0.51653 1.29676
thorax -1.15843 0.23596 -1.34414
lowerneck 19.9296 21.0565 20.5766
upperneck -1.45345 32.1474 -27.6194
head 4.49097 17.2396 -10.2716
rclavicle 1.21756e-015 -1.82882e-014
rhumerus -35.7484 0.652627 -76.7699
rradius 24.5626
rwrist 24.4622
rhand -9.4144 20.9971
rfingers 7.12502
rthumb 16.5475 -8.3173
lclavicle 1.21756e-015 -1.82882e-014
lhumerus -45.6576 -3.40486 80.546
lradius 24.2577
lwrist 0.00720595
lhand -15.9087 13.037
lfingers 7.12502
lthumb 10.2883 42.7654
rfemur -5.49124 -11.5786 23.3569
rtibia 22.4172
rfoot -24.6744 -15.1544
rtoes 39.8132
lfemur -10.2025 5.93442 -21.2826
ltibia 26.8203
lfoot -19.8388 18.8683
ltoes 2.10742
4853
root 15.0074 17.9191 -9.35726 902.729 -94.9609 -903.823
lowerback 3.85044 0.248434 4.64169
upperback 0.877254 0.506741 1.40739
thorax -1.22849 0.228721 -1.1798
lowerneck 20.2113 21.057 20.5878
upperneck -1.46257 32.1909 -27.806
head 4.49663 17.288 -10.3581
rclavicle 1.13307e-014 7.95139e-015
rhumerus -35.2438 0.576851 -76.4395
rradius 25.0873
rwrist 23.8098
rhand -9.42062 20.8779
rfingers 7.12502
rthumb 16.5415 -8.43709
lclavicle 1.13307e-014 7.95139e-015
lhumerus -45.4418 -3.25812 80.6961
lradius 25.1299
lwrist 0.520837
lhand -16.4916 13.231
lfingers 7.12502
lthumb 9.72592 42.9864
rfemur -5.56838 -11.3995 23.3895
rtibia 22.5688
rfoot -24.6111 -15.1853
rtoes 40.3901
lfemur -10.1583 5.7199 -21.2877
ltibia 26.7353
lfoot -19.942 18.9001
ltoes 2.70545
4854
root 15.0091 17.918 -9.35406 904.129 -95.0338 -905.222
lowerback 3.82559 0.21992 4.796
upperback 0.803486 0.476543 1.4497
thorax -1.29116 0.210765 -1.22111
lowerneck 20.4026 21.0411 20.6542
upperneck -1.46327 32.2114 -27.91
head 4.50526 17.3153 -10.4165
rclavicle -1.76421e-015 7.95139e-015
rhumerus -34.7608 0.494128 -76.3398
rradius 25.6366
rwrist 22.8555
rhand -8.59229 21.1698
rfingers 7.12502
rthumb 17.3389 -8.07681
lclavicle -1.76421e-015 7.95139e-015
lhumerus -45.4157 -3.1621 80.6864
lradius 26.2037
lwrist 1.16562
lhand -16.8601 12.8236
lfingers 7.12502
lthumb 9.37032 42.5953
rfemur -5.67678 -11.2879 23.5406
rtibia 22.7297
rfoot -24.7222 -15.12
rtoes 40.9317
lfemur -10.2591 8.43041 -20.9689
ltibia 26.6003
lfoot -18.6652 16.8561
ltoes -0.348231
4855
root 15.0132 17.9158 -9.34901 901.686 -95.1519 -902.774
lowerback 3.77872 0.195389 4.671
upperback 0.779473 0.43791 1.26932
thorax -1.29149 0.192968 -1.3347
lowerneck 20.2918 21.0052 20.7515
upperneck -1.39977 32.1782 -27.8249
head 4.53154 17.2854 -10.3884
rclavicle -7.1811e-015 -1.03368e-014
rhumerus -34.2866 0.139746 -76.3051
rradius 26.1768
rwrist 22.5242
rhand -8.22148 21.453
rfingers 7.12502
rthumb 17.6957 -7.76176
lclavicle -7.1811e-015 -1.03368e-014
lhumerus -45.2729 -3.25459 80.5062
lradius 27.3151
lwrist 1.99429
lhand -16.9213 12.5457
lfingers 7.12502
lthumb 9.31125 42.32
rfemur -5.71792 -11.4274 23.2723
rtibia 22.8175
rfoot -24.8875 -14.7819
rtoes 42.0284
lfemur -10.2404 8.66579 -21.2186
ltibia 26.4988
lfoot -18.2755 16.7895
ltoes -1.71246
4856
root 15.0187 17.9165 -9.34152 899.136 -95.3031 -900.214
lowerback 3.75468 0.255071 4.54177
upperback 0.760128 0.51224 1.12813
thorax -1.29364 0.231237 -1.41103
lowerneck 20.0929 20.9654 20.5376
upperneck -1.35478 32.0365 -27.5775
head 4.45521 17.1906 -10.3033
rclavicle -4.77083e-015 3.97569e-015
rhumerus -33.8755 -0.278106 -76.0535
rradius 26.8227
rwrist 22.3009
rhand -7.96902 21.2964
rfingers 7.12502
rthumb 17.9387 -7.89635
lclavicle -4.77083e-015 3.97569e-015
lhumerus -44.9076 -3.26525 80.4363
lradius 28.287
lwrist 2.46712
lhand -16.8733 12.6095
lfingers 7.12502
lthumb 9.35755 42.3818
rfemur -5.71905 -11.7877 22.9403
rtibia 22.837
rfoot -24.648 -14.6223
rtoes 42.0749
lfemur -10.0836 5.77176 -21.7212
ltibia 26.4299
lfoot -19.1626 19.0648
ltoes -0.173174
4857
root 15.0204 17.917 -9.32876 901.835 -95.3565 -902.973
lowerback 3.76537 0.402397 4.91785
upperback 0.765919 0.722428 1.23612
thorax -1.27796 0.334107 -1.51995
lowerneck 19.8386 20.8556 20.4286
upperneck -1.15828 31.8627 -27.5346
head 4.48293 17.0802 -10.2806
rclavicle -4.96962e-015 -6.36111e-015
rhumerus -33.4452 -0.593396 -75.6432
rradius 27.55
rwrist 21.3739
rhand -7.49889 20.7357
rfingers 7.12502
rthumb 18.391 -8.41493
lclavicle -4.96962e-015 -6.36111e-015
lhumerus -44.5411 -3.51751 80.7478
lradius 29.3481
lwrist 3.04095
lhand -16.8513 12.8503
lfingers 7.12502
lthumb 9.37878 42.6217
rfemur -5.64637 -12.022 23.1396
rtibia 22.8079
rfoot -24.3389 -14.5132
rtoes 41.6538
lfemur -9.98475 5.50944 -21.4871
ltibia 26.3635
lfoot -19.2966 19.1958
ltoes -1.03118
